<svg xmlns="http://www.w3.org/2000/svg" width="1400" height="760" viewBox="0 0 1400 760">
<rect width="100%" height="100%" fill="white"/>
<style>text{font-family:Arial,Helvetica,sans-serif;fill:#111827}.small{font-size:17px}.label{font-size:19px}.title{font-size:24px;font-weight:700}</style>
<text class="title" x="145" y="46">Skin/material sensitivity</text>
<line x1="145" y1="670.00" x2="980" y2="670.00" stroke="#e5e7eb"/>
<text class="small" x="58" y="676.00">-4.9</text>
<line x1="145" y1="552.00" x2="980" y2="552.00" stroke="#e5e7eb"/>
<text class="small" x="58" y="558.00">9.4</text>
<line x1="145" y1="434.00" x2="980" y2="434.00" stroke="#e5e7eb"/>
<text class="small" x="58" y="440.00">23.6</text>
<line x1="145" y1="316.00" x2="980" y2="316.00" stroke="#e5e7eb"/>
<text class="small" x="58" y="322.00">37.9</text>
<line x1="145" y1="198.00" x2="980" y2="198.00" stroke="#e5e7eb"/>
<text class="small" x="58" y="204.00">52.2</text>
<line x1="145" y1="80.00" x2="980" y2="80.00" stroke="#e5e7eb"/>
<text class="small" x="58" y="86.00">66.5</text>
<line x1="145.00" y1="80" x2="145.00" y2="670" stroke="#f3f4f6"/>
<text class="small" x="127.00" y="701">-0.2</text>
<line x1="312.00" y1="80" x2="312.00" y2="670" stroke="#f3f4f6"/>
<text class="small" x="294.00" y="701">0.3</text>
<line x1="479.00" y1="80" x2="479.00" y2="670" stroke="#f3f4f6"/>
<text class="small" x="461.00" y="701">0.8</text>
<line x1="646.00" y1="80" x2="646.00" y2="670" stroke="#f3f4f6"/>
<text class="small" x="628.00" y="701">1.4</text>
<line x1="813.00" y1="80" x2="813.00" y2="670" stroke="#f3f4f6"/>
<text class="small" x="795.00" y="701">1.9</text>
<line x1="980.00" y1="80" x2="980.00" y2="670" stroke="#f3f4f6"/>
<text class="small" x="962.00" y="701">2.4</text>
<line x1="145" y1="80" x2="145" y2="670" stroke="#111827" stroke-width="2"/>
<line x1="145" y1="670" x2="980" y2="670" stroke="#111827" stroke-width="2"/>
<polyline points="202.59,629.31 210.77,629.08 218.95,627.59 227.13,623.69 235.31,617.43 243.49,610.72 251.67,605.90 259.85,603.65 268.03,603.39 276.20,603.57 284.38,602.30 292.56,598.87 300.74,593.54 308.92,587.07 317.10,581.11 325.28,577.92 333.46,577.37 341.64,577.58 349.82,577.01 358.00,574.31 366.18,569.33 374.36,562.94 382.54,556.95 390.72,552.79 398.90,551.28 407.08,551.47 415.26,551.38 423.44,549.56 431.62,545.13 439.80,538.94 447.98,532.72 456.16,527.86 464.34,525.42 472.52,525.39 480.70,525.70 488.88,524.25 497.06,520.67 505.24,515.16 513.42,508.63 521.60,503.06 529.78,499.97 537.96,499.45 546.14,501.34 554.32,504.78 562.50,507.97 570.68,509.38 578.86,508.05 587.04,504.50 595.22,500.76 595.22,500.76 596.86,500.15 598.49,499.66 600.13,499.28 601.76,499.00 603.40,498.91 605.04,498.88 606.67,499.09 608.31,499.36 609.94,499.81 611.58,500.32 613.22,500.90 614.85,501.40 616.49,501.71 618.12,501.68 619.76,501.13 621.39,499.79 623.03,497.65 624.67,494.59 626.30,490.52 627.94,485.33 629.57,478.57 631.21,470.52 632.85,461.06 634.48,450.21 636.12,438.04 637.75,424.65 639.39,410.16 641.03,394.79 642.66,378.80 644.30,362.48 645.93,346.22 647.57,330.32 649.21,315.13 650.84,300.99 652.48,288.20 654.11,277.07 655.75,267.85 657.39,260.72 659.02,255.77 660.66,253.03 662.29,252.52 663.93,253.88 665.57,257.24 667.20,262.60 668.84,269.98 670.47,279.27 672.11,290.25 673.75,302.73 675.38,316.54 677.02,331.46 678.65,347.19 680.29,363.41 681.93,379.83 683.56,396.18 685.20,412.21 686.83,427.68 688.47,442.38 690.11,456.19 691.74,469.00 693.38,480.72 695.01,491.29 696.65,500.68 698.29,508.87 699.92,515.85 701.56,521.64 703.19,526.24 704.83,529.69 706.47,531.94 708.10,533.14 709.74,533.40 711.37,532.87 713.01,531.71 714.65,530.11 716.28,527.97 717.92,525.74 719.55,523.72 721.19,522.26 722.83,521.76 724.46,522.54 726.10,524.88 727.73,528.98 729.37,534.95 731.01,542.56 732.64,551.63 734.28,562.00 735.91,573.49 737.55,585.63 739.18,598.61 740.82,612.30 742.46,625.20 744.09,615.80 745.73,601.35 747.36,586.99 749.00,573.16 750.64,560.06 752.27,548.07 753.91,537.04 755.54,527.39 757.18,519.29 758.82,513.11 760.45,508.69 762.09,506.33 763.72,506.05 765.36,507.84 767.00,511.81 768.63,517.75 770.27,525.77 771.90,535.45 773.54,546.91 775.18,559.67 776.81,573.79 778.45,588.88 780.08,604.85 781.72,621.22 783.36,617.82 784.99,601.82 786.63,584.84 788.26,567.84 789.90,551.36 791.54,535.64 793.17,520.97 794.81,507.68 796.44,496.14 798.08,486.04 799.72,477.72 801.35,471.27 802.99,466.30 804.62,462.72 806.26,460.32 807.90,458.95 809.53,458.54 811.17,459.06 812.80,460.40 814.44,462.78 816.08,466.07 817.71,470.14 819.35,474.81 820.98,479.78 822.62,485.07 824.26,490.62 824.26,490.62 832.44,520.30 840.62,545.57 848.80,550.40 856.97,526.10 865.15,485.49 873.33,460.16 881.51,460.29 889.69,482.56 897.87,514.84 906.05,540.41 914.23,550.01 922.41,534.27" fill="none" stroke="#2f4f4f" stroke-width="3"/>
<polyline points="202.59,629.31 210.77,629.07 218.95,627.58 227.13,623.46 235.31,616.37 243.49,607.71 251.67,598.98 259.85,592.97 268.03,590.83 276.20,591.58 284.38,592.43 292.56,591.10 300.74,586.79 308.92,579.76 317.10,571.29 325.28,563.51 333.46,557.75 341.64,553.96 349.82,552.65 358.00,553.22 366.18,553.50 374.36,550.91 382.54,544.84 390.72,536.38 398.90,527.39 407.08,520.04 415.26,516.12 423.44,515.79 431.62,516.22 439.80,515.40 447.98,513.05 456.16,508.36 464.34,501.09 472.52,492.57 480.70,484.92 488.88,479.41 497.06,476.54 505.24,476.70 513.42,478.15 521.60,477.36 529.78,472.60 537.96,465.32 546.14,458.23 554.32,454.09 562.50,455.56 570.68,461.72 578.86,469.80 587.04,475.65 595.22,477.02 595.22,477.02 596.86,476.74 598.49,476.32 600.13,475.63 601.76,474.86 603.40,473.86 605.04,472.76 606.67,471.55 608.31,470.21 609.94,468.83 611.58,467.35 613.22,465.79 614.85,464.12 616.49,462.11 618.12,459.93 619.76,457.07 621.39,453.79 623.03,449.89 624.67,445.03 626.30,439.74 627.94,432.83 629.57,425.23 631.21,416.34 632.85,406.03 634.48,394.71 636.12,381.68 637.75,367.24 639.39,351.76 641.03,335.35 642.66,317.99 644.30,300.20 645.93,282.21 647.57,264.25 649.21,246.46 650.84,228.98 652.48,211.94 654.11,195.41 655.75,179.61 657.39,164.78 659.02,151.33 660.66,139.78 662.29,130.92 663.93,124.67 665.57,121.13 667.20,120.69 668.84,123.07 670.47,128.14 672.11,136.06 673.75,146.89 675.38,160.25 677.02,176.00 678.65,194.30 680.29,214.42 681.93,236.04 683.56,258.88 685.20,282.49 686.83,306.50 688.47,330.64 690.11,354.58 691.74,378.05 693.38,400.80 695.01,422.48 696.65,443.01 698.29,462.30 699.92,480.17 701.56,496.48 703.19,511.18 704.83,524.51 706.47,536.14 708.10,546.11 709.74,554.60 711.37,561.56 713.01,567.15 714.65,571.52 716.28,574.61 717.92,576.33 719.55,576.96 721.19,576.69 722.83,575.72 724.46,574.50 726.10,573.31 727.73,572.44 729.37,572.10 731.01,572.37 732.64,573.34 734.28,575.09 735.91,576.56 737.55,578.24 739.18,580.75 740.82,584.14 742.46,588.56 744.09,594.00 745.73,600.04 747.36,606.03 749.00,612.56 750.64,620.03 752.27,615.70 753.91,607.70 755.54,599.37 757.18,591.21 758.82,583.27 760.45,574.94 762.09,564.68 763.72,552.78 765.36,541.18 767.00,530.23 768.63,520.31 770.27,511.70 771.90,504.62 773.54,499.52 775.18,496.34 776.81,495.73 778.45,497.35 780.08,501.40 781.72,507.98 783.36,517.17 784.99,528.99 786.63,543.09 788.26,559.63 789.90,578.02 791.54,598.40 793.17,606.19 794.81,597.19 796.44,583.60 798.08,563.96 799.72,538.09 801.35,511.45 802.99,484.43 804.62,457.33 806.26,430.49 807.90,404.35 809.53,379.32 811.17,355.94 812.80,334.76 814.44,316.44 816.08,301.45 817.71,289.93 819.35,281.95 820.98,277.45 822.62,276.50 824.26,278.67 824.26,278.67 832.44,331.94 840.62,435.33 848.80,553.34 856.97,601.64 865.15,589.52 873.33,558.27 881.51,446.26 889.69,324.15 897.87,260.47 906.05,293.75 914.23,413.30 922.41,535.88" fill="none" stroke="#9a3412" stroke-width="3"/>
<polyline points="202.59,629.31 210.77,629.08 218.95,627.59 227.13,623.47 235.31,616.45 243.49,607.85 251.67,599.47 259.85,593.78 268.03,591.84 276.20,592.51 284.38,593.19 292.56,591.71 300.74,587.27 308.92,580.34 317.10,572.19 325.28,564.59 333.46,558.90 341.64,555.39 349.82,554.37 358.00,555.07 366.18,555.04 374.36,552.25 382.54,545.81 390.72,537.19 398.90,528.47 407.08,521.99 415.26,518.87 423.44,518.48 431.62,518.64 439.80,517.71 447.98,515.11 456.16,510.14 464.34,502.69 472.52,494.12 480.70,486.70 488.88,481.89 497.06,480.18 505.24,480.98 513.42,481.94 521.60,479.98 529.78,474.30 537.96,466.88 546.14,460.22 554.32,456.89 562.50,459.05 570.68,465.55 578.86,473.53 587.04,479.21 595.22,480.31 595.22,480.31 596.86,479.91 598.49,479.35 600.13,478.59 601.76,477.59 603.40,476.48 605.04,475.10 606.67,473.67 608.31,472.07 609.94,470.43 611.58,468.75 613.22,466.98 614.85,465.17 616.49,463.09 618.12,460.76 619.76,458.11 621.39,454.77 623.03,450.95 624.67,446.56 626.30,440.99 627.94,434.64 629.57,427.47 631.21,418.55 632.85,408.68 634.48,397.56 636.12,384.88 637.75,370.86 639.39,355.76 641.03,339.67 642.66,322.85 644.30,305.55 645.93,287.97 647.57,270.30 649.21,252.71 650.84,235.39 652.48,218.54 654.11,202.40 655.75,187.19 657.39,173.21 659.02,160.79 660.66,150.29 662.29,142.03 663.93,136.31 665.57,133.30 667.20,133.08 668.84,135.67 670.47,141.01 672.11,149.01 673.75,159.67 675.38,172.96 677.02,188.58 678.65,206.32 680.29,225.90 681.93,246.97 683.56,269.13 685.20,291.99 686.83,315.18 688.47,338.38 690.11,361.32 691.74,383.71 693.38,405.34 695.01,426.01 696.65,445.57 698.29,463.86 699.92,480.79 701.56,496.29 703.19,510.33 704.83,522.84 706.47,533.85 708.10,543.42 709.74,551.50 711.37,558.18 713.01,563.58 714.65,567.78 716.28,570.88 717.92,572.98 719.55,574.22 721.19,574.74 722.83,574.71 724.46,574.36 726.10,573.86 727.73,573.41 729.37,573.21 731.01,573.44 732.64,574.29 734.28,575.51 735.91,576.91 737.55,578.80 739.18,581.49 740.82,585.02 742.46,589.42 744.09,594.56 745.73,600.37 747.36,606.70 749.00,613.76 750.64,618.86 752.27,612.39 753.91,604.64 755.54,596.51 757.18,588.37 758.82,580.24 760.45,571.55 762.09,560.51 763.72,549.15 765.36,537.98 767.00,527.40 768.63,517.75 770.27,509.46 771.90,503.02 773.54,498.42 775.18,496.27 776.81,496.37 778.45,498.92 780.08,504.07 781.72,511.60 783.36,521.97 784.99,534.61 786.63,549.70 788.26,567.05 789.90,586.30 791.54,607.50 793.17,608.50 794.81,597.80 796.44,579.11 798.08,553.85 799.72,527.98 801.35,501.96 802.99,476.10 804.62,450.85 806.26,426.34 807.90,402.89 809.53,380.76 811.17,360.27 812.80,342.12 814.44,326.50 816.08,313.60 817.71,303.61 819.35,296.63 820.98,292.68 822.62,291.73 824.26,293.73 824.26,293.73 832.44,345.33 840.62,445.82 848.80,558.93 856.97,601.75 865.15,586.37 873.33,552.78 881.51,434.06 889.69,319.02 897.87,271.68 906.05,318.56 914.23,438.28 922.41,548.95" fill="none" stroke="#c2410c" stroke-width="3"/>
<polyline points="202.59,629.31 210.77,629.08 218.95,627.57 227.13,624.23 235.31,620.11 243.49,617.41 251.67,616.79 259.85,616.79 268.03,616.05 276.20,613.59 284.38,609.79 292.56,606.16 300.74,604.21 308.92,604.16 317.10,604.18 325.28,602.49 333.46,599.37 341.64,595.48 349.82,592.43 358.00,591.43 366.18,591.65 374.36,591.12 382.54,588.66 390.72,584.94 398.90,581.41 407.08,579.17 415.26,578.78 423.44,579.03 431.62,577.73 439.80,574.49 447.98,570.53 456.16,567.64 464.34,566.34 472.52,566.22 480.70,566.04 488.88,564.02 497.06,560.10 505.24,556.37 513.42,554.24 521.60,553.69 529.78,553.69 537.96,552.93 546.14,551.59 554.32,550.86 562.50,551.67 570.68,553.16 578.86,553.71 587.04,553.38 595.22,552.30 595.22,552.30 596.86,552.04 598.49,551.80 600.13,551.57 601.76,551.37 603.40,551.22 605.04,551.09 606.67,551.02 608.31,551.00 609.94,551.01 611.58,551.10 613.22,551.18 614.85,551.19 616.49,550.98 618.12,550.42 619.76,549.36 621.39,547.66 623.03,545.20 624.67,541.81 626.30,537.38 627.94,531.85 629.57,525.20 631.21,517.52 632.85,508.89 634.48,499.49 636.12,489.53 637.75,479.22 639.39,468.82 641.03,458.62 642.66,448.96 644.30,440.18 645.93,432.63 647.57,426.57 649.21,422.19 650.84,419.56 652.48,418.61 654.11,419.18 655.75,421.07 657.39,424.12 659.02,428.15 660.66,433.01 662.29,438.55 663.93,444.60 665.57,451.02 667.20,457.68 668.84,464.43 670.47,471.08 672.11,477.41 673.75,483.24 675.38,488.40 677.02,492.81 678.65,496.40 680.29,499.12 681.93,500.95 683.56,501.90 685.20,502.04 686.83,501.47 688.47,500.35 690.11,498.88 691.74,497.27 693.38,495.72 695.01,494.42 696.65,493.57 698.29,493.36 699.92,493.96 701.56,495.57 703.19,498.36 704.83,502.45 706.47,507.94 708.10,514.84 709.74,523.11 711.37,532.66 713.01,543.28 714.65,554.72 716.28,566.61 717.92,578.59 719.55,589.95 721.19,600.47 722.83,610.40 724.46,619.34 726.10,624.96 727.73,621.65 729.37,615.12 731.01,609.75 732.64,605.59 734.28,602.67 735.91,600.73 737.55,599.86 739.18,600.18 740.82,601.60 742.46,604.07 744.09,607.39 745.73,611.28 747.36,615.54 749.00,619.86 750.64,623.50 752.27,625.37 753.91,626.49 755.54,625.16 757.18,623.67 758.82,623.15 760.45,623.66 762.09,625.12 763.72,624.67 765.36,623.94 767.00,622.14 768.63,618.69 770.27,614.13 771.90,609.63 773.54,605.48 775.18,601.98 776.81,599.35 778.45,597.75 780.08,597.50 781.72,598.55 783.36,600.91 784.99,604.74 786.63,609.82 788.26,616.10 789.90,623.17 791.54,624.97 793.17,617.48 794.81,607.83 796.44,597.68 798.08,587.07 799.72,576.20 801.35,565.18 802.99,554.19 804.62,543.44 806.26,533.16 807.90,523.76 809.53,515.42 811.17,508.46 812.80,503.28 814.44,499.86 816.08,498.34 817.71,498.81 819.35,501.12 820.98,505.37 822.62,511.39 824.26,518.91 824.26,518.91 832.44,569.38 840.62,602.39 848.80,593.45 856.97,547.92 865.15,507.18 873.33,501.90 881.51,542.89 889.69,591.95 897.87,603.85 906.05,574.34 914.23,522.77 922.41,499.69" fill="none" stroke="#0f766e" stroke-width="3"/>
<polyline points="202.59,629.31 210.77,629.08 218.95,627.81 227.13,625.85 235.31,624.80 243.49,624.98 251.67,624.46 259.85,622.58 268.03,620.86 276.20,620.53 284.38,620.52 292.56,619.41 300.74,617.54 308.92,616.26 317.10,616.05 325.28,615.92 333.46,614.48 341.64,612.42 349.82,611.66 358.00,611.80 366.18,611.14 374.36,609.17 382.54,607.64 390.72,607.36 398.90,607.20 407.08,606.12 415.26,604.25 423.44,602.90 431.62,602.91 439.80,602.71 447.98,601.03 456.16,599.12 464.34,598.49 472.52,598.53 480.70,597.78 488.88,595.97 497.06,594.46 505.24,593.94 513.42,593.85 521.60,592.98 529.78,591.07 537.96,589.80 546.14,590.96 554.32,592.83 562.50,592.47 570.68,590.37 578.86,589.88 587.04,591.75 595.22,592.97 595.22,592.97 596.86,592.88 598.49,592.75 600.13,592.46 601.76,592.14 603.40,591.75 605.04,591.35 606.67,590.96 608.31,590.59 609.94,590.31 611.58,590.04 613.22,589.85 614.85,589.61 616.49,589.22 618.12,588.55 619.76,587.47 621.39,585.87 623.03,583.64 624.67,580.71 626.30,577.10 627.94,572.89 629.57,568.24 631.21,563.32 632.85,558.37 634.48,553.59 636.12,549.19 637.75,545.34 639.39,542.22 641.03,540.00 642.66,538.80 644.30,538.60 645.93,539.42 647.57,541.16 649.21,543.51 650.84,546.04 652.48,548.41 654.11,550.46 655.75,552.04 657.39,553.05 659.02,553.41 660.66,553.06 662.29,551.99 663.93,550.25 665.57,547.96 667.20,545.45 668.84,542.88 670.47,540.55 672.11,538.70 673.75,537.53 675.38,537.20 677.02,537.78 678.65,539.31 680.29,541.73 681.93,544.95 683.56,548.83 685.20,553.21 686.83,557.86 688.47,562.58 690.11,567.19 691.74,571.51 693.38,575.37 695.01,578.62 696.65,581.21 698.29,583.13 699.92,584.44 701.56,585.27 703.19,585.75 704.83,586.00 706.47,586.13 708.10,586.27 709.74,586.51 711.37,587.02 713.01,587.95 714.65,589.44 716.28,591.59 717.92,594.44 719.55,597.97 721.19,602.09 722.83,606.65 724.46,611.53 726.10,616.58 727.73,621.63 729.37,626.20 731.01,627.26 732.64,623.57 734.28,620.70 735.91,618.84 737.55,618.14 739.18,618.50 740.82,619.81 742.46,621.68 744.09,623.58 745.73,624.96 747.36,625.70 749.00,625.65 750.64,625.42 752.27,625.05 753.91,624.75 755.54,624.56 757.18,624.35 758.82,623.84 760.45,621.59 762.09,618.60 763.72,615.66 765.36,613.08 767.00,611.11 768.63,609.99 770.27,609.88 771.90,610.83 773.54,612.87 775.18,615.78 776.81,619.48 778.45,623.40 780.08,626.69 781.72,626.02 783.36,621.64 784.99,617.60 786.63,614.04 788.26,611.06 789.90,608.69 791.54,606.84 793.17,605.46 794.81,604.51 796.44,603.94 798.08,603.63 799.72,603.48 801.35,603.38 802.99,603.09 804.62,602.55 806.26,601.73 807.90,600.52 809.53,598.84 811.17,596.51 812.80,593.56 814.44,590.16 816.08,586.71 817.71,583.53 819.35,580.77 820.98,578.73 822.62,577.56 824.26,577.34 824.26,577.34 832.44,591.57 840.62,603.76 848.80,595.23 856.97,577.68 865.15,583.48 873.33,600.42 881.51,601.68 889.69,587.01 897.87,579.56 906.05,588.70 914.23,603.86 922.41,598.56" fill="none" stroke="#155e75" stroke-width="3"/>
<text class="label" x="527.50" y="738">Time (s)</text>
<text class="label" transform="translate(28 375.00) rotate(-90)" text-anchor="middle">Peak breast displacement (mm)</text>
<line x1="1010" y1="90" x2="1038" y2="90" stroke="#2f4f4f" stroke-width="4"/>
<text class="small" x="1048" y="97">Reference 1.5 mm soft skin</text>
<line x1="1010" y1="128" x2="1038" y2="128" stroke="#9a3412" stroke-width="4"/>
<text class="small" x="1048" y="135">No skin</text>
<line x1="1010" y1="166" x2="1038" y2="166" stroke="#c2410c" stroke-width="4"/>
<text class="small" x="1048" y="173">0.1 mm soft skin</text>
<line x1="1010" y1="204" x2="1038" y2="204" stroke="#0f766e" stroke-width="4"/>
<text class="small" x="1048" y="211">1.5 mm intermediate skin</text>
<line x1="1010" y1="242" x2="1038" y2="242" stroke="#155e75" stroke-width="4"/>
<text class="small" x="1048" y="249">1.5 mm stiff skin</text>
</svg>
